<svg id="Calque_1" data-name="Calque 1" xmlns="http://www.w3.org/2000/svg" xmlns:xlink="http://www.w3.org/1999/xlink" viewBox="0 0 57.9 53.91"><defs><style>.cls-1{fill:url(#Dégradé_sans_nom_35);}</style><linearGradient id="Dégradé_sans_nom_35" x1="48.28" y1="47.18" x2="48.28" y2="74.91" gradientUnits="userSpaceOnUse"><stop offset="0" stop-color="#c1b999"/><stop offset="0.15" stop-color="#b8b596"/><stop offset="0.4" stop-color="#9eac8d"/><stop offset="0.72" stop-color="#759c7f"/><stop offset="0.99" stop-color="#4b8c71"/></linearGradient></defs><title>icon-compte</title><path class="cls-1" d="M72.48,74.91H24.08a4.72,4.72,0,0,1-4.36-6.57c3.5-8.2,11.71-21.16,28.56-21.16s25.06,13,28.57,21.16A4.73,4.73,0,0,1,72.48,74.91Z" transform="translate(-19.33 -21)"/><path d="M48.28,24A15.49,15.49,0,1,1,32.8,39.48,15.5,15.5,0,0,1,48.28,24m0-3A18.49,18.49,0,1,0,66.76,39.48,18.48,18.48,0,0,0,48.28,21Z" transform="translate(-19.33 -21)"/></svg>