<svg id="Calque_1" data-name="Calque 1" xmlns="http://www.w3.org/2000/svg" xmlns:xlink="http://www.w3.org/1999/xlink" viewBox="0 0 68.5 40.5"><defs><style>.cls-1,.cls-3{fill:none;stroke:#000;stroke-linecap:round;stroke-width:3px;}.cls-1{stroke-linejoin:round;}.cls-2{fill:url(#Dégradé_sans_nom_35);}.cls-3{stroke-miterlimit:10;}</style><linearGradient id="Dégradé_sans_nom_35" x1="29.73" y1="45" x2="81.5" y2="45" gradientUnits="userSpaceOnUse"><stop offset="0" stop-color="#c1b999"/><stop offset="0.15" stop-color="#b8b596"/><stop offset="0.4" stop-color="#9eac8d"/><stop offset="0.72" stop-color="#759c7f"/><stop offset="0.99" stop-color="#4b8c71"/></linearGradient></defs><title>icon-livraison</title><polyline class="cls-1" points="48.5 4 55.5 4 63.5 17 56.5 17"/><path class="cls-2" d="M35,28.5H60.31A3.68,3.68,0,0,1,64,31.66l1.1,7.68a3.68,3.68,0,0,0,3.64,3.16h7a3.7,3.7,0,0,1,2.88,1.38l2.08,2.61a3.65,3.65,0,0,1,.81,2.3v9a3.68,3.68,0,0,1-3.68,3.68H33.41a3.68,3.68,0,0,1-3.67-3.9L31.29,32A3.69,3.69,0,0,1,35,28.5Z" transform="translate(-13 -28.5)"/><circle class="cls-3" cx="56" cy="33.5" r="5"/><circle class="cls-3" cx="32.5" cy="34" r="5"/><line class="cls-1" x1="23.5" y1="4" x2="8.5" y2="4"/><line class="cls-1" x1="21.5" y1="10" x2="13.5" y2="10"/><line class="cls-1" x1="21.5" y1="17" x2="1.5" y2="17"/><line class="cls-1" x1="19.5" y1="23" x2="12.5" y2="23"/><line class="cls-1" x1="18.5" y1="29" x2="5.5" y2="29"/></svg>