<svg id="Calque_1" data-name="Calque 1" xmlns="http://www.w3.org/2000/svg" viewBox="0 0 408.56 139.35"><defs><style>.cls-1{fill:#231f20;}</style></defs><title>logo</title><path class="cls-1" d="M47,273.92c24.68,1.61,49.36.93,74,2.54,19.67,1.28,40.76-3,58.37-13.77l-2.84-2.83c-5.51,7.85,5.77,11.75,11.77,9,4.51-2.06,3.6-2.83,9.27-2.28,8,.79,2.24.77,6.37,2.38,1.88.73,2.51,1.37,4.56,1.42,2.78.08,5.47-1.95,8.13-1.82,4.25.2,6,4.42,8.81,6.66,4.28,3.37,10.28,3.26,15.42,3.2,9.66-.11,19.34-.63,29-1.45a440.16,440.16,0,0,0,56.28-8.54c2.6-.56,1.5-4.56-1.1-4a432,432,0,0,1-47.16,7.64q-11.22,1.17-22.5,1.73c-7.06.35-15.51,1.75-22.45,0-5.74-1.44-6.89-7.17-11.81-9.06-3.9-1.49-7.16,1-11,1.16-4.78.18-6.6-5.17-11.61-5.54a12.83,12.83,0,0,0-5.07,1,22.37,22.37,0,0,0-2.47,1.18q-4.75,4-10.83-.61c1.21-1.73-1.14-3.88-2.83-2.84-18.56,11.39-42.1,14.13-62.72,12.79-22.53-1.47-45.06-.65-67.6-2.12-2.66-.17-2.65,4,0,4.14Z" transform="translate(-45 -179.82)"/><path class="cls-1" d="M342.6,247c-8.77-.05-18.12,6.14-18.82,15.58-.86,11.71,15.27,9.24,22.85,9.6,35.06,1.65,70.17,4.63,105,.05,2.6-.34,2.64-4.49,0-4.14-23,3-46.16.21-69.36.53q-17,.24-34-.51c-4-.18-12.72.95-16.16-.94-11.59-6.39,4.31-16.06,10.51-16,2.66,0,2.66-4.13,0-4.14Z" transform="translate(-45 -179.82)"/><polygon class="cls-1" points="213.06 133.55 201.46 133.55 201.46 26.7 153.62 71.38 103.69 26.38 103.69 133.55 92.09 133.55 92.09 0.32 153.48 55.64 213.06 0 213.06 133.55"/><path class="cls-1" d="M332.23,319.17h-.42c-33.52-.18-48.53-33.23-48.53-65.9,0-23.58,6.63-42.16,19.18-53.75,9.84-9.08,22.59-13.27,36.9-12.13,30.64,2.45,40.41,33.09,40.81,34.4l-11.08,3.42c-.31-1-7.94-24.44-30.66-26.26-11-.88-20.7,2.26-28.1,9.09-10.11,9.34-15.45,25-15.45,45.23,0,25,9.69,54.16,37,54.3h.35c24.78,0,32.54-14.34,36.87-28.39l11.08,3.41C375.34,298.31,365.1,319.17,332.23,319.17Z" transform="translate(-45 -179.82)"/></svg>