<svg id="Calque_1" data-name="Calque 1" xmlns="http://www.w3.org/2000/svg" viewBox="0 0 214.47 214.47"><defs><style>.cls-1{fill:#231f20;}.cls-2{fill:#fff;}</style></defs><title>favicon</title><circle class="cls-1" cx="107.24" cy="107.24" r="107.24"/><polygon class="cls-2" points="109.29 150.78 96.96 150.78 96.96 92.4 70.77 116.86 43.26 92.06 43.26 150.78 30.93 150.78 30.93 64.36 70.62 100.13 109.29 64.02 109.29 150.78"/><path class="cls-2" d="M303,294.62h-.27c-22.91-.13-33.16-22.27-33.16-44.16,0-19.73,7-30.37,12.93-35.82a32.73,32.73,0,0,1,25.22-8.32c21,1.68,27.72,22.61,28,23.5L324,233.48c-.18-.57-4.57-13.86-17.2-14.87a20.44,20.44,0,0,0-15.88,5.09c-5.86,5.42-9,14.67-9,26.76,0,14.63,5.47,31.75,20.9,31.83H303c13.21,0,17.92-6.47,20.91-16.19l11.78,3.63C333.82,275.9,328.05,294.62,303,294.62Z" transform="translate(-143 -143.17)"/></svg>